<?xml version="1.0" ?><svg fill="none" height="24" viewBox="0 0 24 24" width="24" xmlns="http://www.w3.org/2000/svg"><path clip-rule="evenodd" d="M6 7C3.23858 7 1 9.23858 1 12C1 14.7614 3.23858 17 6 17C8.76142 17 11 14.7614 11 12C11 13.262 11.3177 14.452 11.8842 15.3584C12.4419 16.2508 13.3404 17 14.5 17C15.6596 17 16.5581 16.2508 17.1158 15.3584C17.6823 14.452 18 13.262 18 12C18 13.1927 18.1796 14.3171 18.503 15.1796C18.6633 15.6071 18.8784 16.0225 19.1679 16.3491C19.4563 16.6744 19.9042 17 20.5 17C21.0958 17 21.5437 16.6744 21.8321 16.3491C22.1216 16.0225 22.3367 15.6071 22.497 15.1796C22.8204 14.3171 23 13.1927 23 12C23 10.8073 22.8204 9.6829 22.497 8.82045C22.3367 8.39292 22.1216 7.97747 21.8321 7.65093C21.5437 7.32556 21.0958 7 20.5 7C19.9042 7 19.4563 7.32556 19.1679 7.65093C18.8784 7.97747 18.6633 8.39292 18.503 8.82045C18.1796 9.6829 18 10.8073 18 12C18 10.738 17.6823 9.548 17.1158 8.64157C16.5581 7.74924 15.6596 7 14.5 7C13.3404 7 12.4419 7.74924 11.8842 8.64157C11.3177 9.548 11 10.738 11 12C11 9.23858 8.76142 7 6 7Z" fill="black" fill-rule="evenodd"/></svg>